<?xml version="1.0" encoding="UTF-8" standalone="no"?>
<!-- Generator: Adobe Illustrator 16.0.0, SVG Export Plug-In . SVG Version: 6.00 Build 0)  -->

<svg
   xmlns:dc="http://purl.org/dc/elements/1.1/"
   xmlns:cc="http://creativecommons.org/ns#"
   xmlns:rdf="http://www.w3.org/1999/02/22-rdf-syntax-ns#"
   xmlns:svg="http://www.w3.org/2000/svg"
   xmlns="http://www.w3.org/2000/svg"
   xmlns:sodipodi="http://sodipodi.sourceforge.net/DTD/sodipodi-0.dtd"
   xmlns:inkscape="http://www.inkscape.org/namespaces/inkscape"
   version="1.1"
   id="Capa_1"
   x="0px"
   y="0px"
   width="512px"
   height="512px"
   viewBox="0 0 438.533 438.533"
   style="enable-background:new 0 0 438.533 438.533;"
   xml:space="preserve"
   sodipodi:docname="chevron-sign-to-left.svg"
   inkscape:version="0.92.3 (2405546, 2018-03-11)"><metadata
   id="metadata3793"><rdf:RDF><cc:Work
       rdf:about=""><dc:format>image/svg+xml</dc:format><dc:type
         rdf:resource="http://purl.org/dc/dcmitype/StillImage" /><dc:title></dc:title></cc:Work></rdf:RDF></metadata><defs
   id="defs3791" /><sodipodi:namedview
   pagecolor="#ffffff"
   bordercolor="#666666"
   borderopacity="1"
   objecttolerance="10"
   gridtolerance="10"
   guidetolerance="10"
   inkscape:pageopacity="0"
   inkscape:pageshadow="2"
   inkscape:window-width="1920"
   inkscape:window-height="1057"
   id="namedview3789"
   showgrid="false"
   inkscape:zoom="1.734375"
   inkscape:cx="256"
   inkscape:cy="256"
   inkscape:window-x="-8"
   inkscape:window-y="-8"
   inkscape:window-maximized="1"
   inkscape:current-layer="Capa_1" />
<g
   id="g3756"
   transform="matrix(-1,0,0,1,438.532,0)">
	<path
   d="M 409.133,109.203 C 389.525,75.611 362.928,49.014 329.335,29.407 295.736,9.801 259.058,0 219.273,0 179.492,0 142.803,9.801 109.21,29.407 75.615,49.011 49.018,75.608 29.41,109.203 9.801,142.8 0,179.489 0,219.267 c 0,39.78 9.804,76.463 29.407,110.062 19.607,33.592 46.204,60.189 79.799,79.798 33.597,19.605 70.283,29.407 110.063,29.407 39.78,0 76.47,-9.802 110.065,-29.407 33.593,-19.602 60.189,-46.206 79.795,-79.798 19.603,-33.596 29.403,-70.284 29.403,-110.062 0.001,-39.782 -9.8,-76.472 -29.399,-110.064 z M 334.332,232.111 204.71,361.736 c -3.617,3.613 -7.896,5.428 -12.847,5.428 -4.952,0 -9.235,-1.814 -12.85,-5.428 l -29.121,-29.13 c -3.617,-3.613 -5.426,-7.898 -5.426,-12.847 0,-4.941 1.809,-9.232 5.426,-12.847 l 87.653,-87.646 -87.657,-87.65 c -3.617,-3.612 -5.426,-7.898 -5.426,-12.845 0,-4.949 1.809,-9.231 5.426,-12.847 l 29.121,-29.13 c 3.619,-3.615 7.898,-5.424 12.85,-5.424 4.95,0 9.233,1.809 12.85,5.424 l 129.622,129.621 c 3.613,3.614 5.42,7.898 5.42,12.847 0.001,4.951 -1.806,9.236 -5.419,12.849 z"
   id="path3754"
   inkscape:connector-curvature="0"
   style="fill:#778899" />
</g>
<g
   id="g3758"
   transform="matrix(-1,0,0,1,438.532,0)">
</g>
<g
   id="g3760"
   transform="matrix(-1,0,0,1,438.532,0)">
</g>
<g
   id="g3762"
   transform="matrix(-1,0,0,1,438.532,0)">
</g>
<g
   id="g3764"
   transform="matrix(-1,0,0,1,438.532,0)">
</g>
<g
   id="g3766"
   transform="matrix(-1,0,0,1,438.532,0)">
</g>
<g
   id="g3768"
   transform="matrix(-1,0,0,1,438.532,0)">
</g>
<g
   id="g3770"
   transform="matrix(-1,0,0,1,438.532,0)">
</g>
<g
   id="g3772"
   transform="matrix(-1,0,0,1,438.532,0)">
</g>
<g
   id="g3774"
   transform="matrix(-1,0,0,1,438.532,0)">
</g>
<g
   id="g3776"
   transform="matrix(-1,0,0,1,438.532,0)">
</g>
<g
   id="g3778"
   transform="matrix(-1,0,0,1,438.532,0)">
</g>
<g
   id="g3780"
   transform="matrix(-1,0,0,1,438.532,0)">
</g>
<g
   id="g3782"
   transform="matrix(-1,0,0,1,438.532,0)">
</g>
<g
   id="g3784"
   transform="matrix(-1,0,0,1,438.532,0)">
</g>
<g
   id="g3786"
   transform="matrix(-1,0,0,1,438.532,0)">
</g>
</svg>